<svg width="246" height="180" viewBox="0 0 246 180" fill="none" xmlns="http://www.w3.org/2000/svg">
<path fill-rule="evenodd" clip-rule="evenodd" d="M213.763 69.395C231.415 67.6941 245.215 52.8451 245.215 34.7787C245.215 15.571 229.616 0 210.374 0C191.131 0 175.532 15.571 175.532 34.7787L175.532 34.876C186.798 35.6946 197.734 41.6816 204.186 52.8369L213.763 69.395ZM186.797 51.2041C189.514 53.1244 191.901 55.6751 193.741 58.8563L198.793 67.59L242.484 143.128C251.768 159.18 240.163 179.244 221.594 179.244H190.407C200.168 168.266 203.134 151.597 194.754 137.108L150.728 60.9907L151.963 58.8563C157.567 49.167 168.245 45.3265 177.872 47.3347C181.033 47.9941 184.08 49.2839 186.797 51.2041ZM72.8992 22.74C82.1834 6.68823 105.394 6.68821 114.678 22.7399L184.31 143.128C192.433 157.173 184.564 174.291 170.03 178.351C167.962 178.928 165.759 179.242 163.448 179.244C163.448 179.244 163.448 179.244 163.448 179.244H163.42L163.42 179.244L124.11 179.244H24.1571C5.58864 179.244 -6.01661 159.18 3.2676 143.128L72.8992 22.74Z" fill="#EAEAEA"/>
</svg>
